STARTFONT 2.1
FONT -FontForge-04b03b-Book-R-Normal--16-150-75-75-P-88-ISO10646-1
SIZE 15 75 75
FONTBOUNDINGBOX 11 14 0 -2
COMMENT "Generated by fontforge, http://fontforge.sourceforge.net"
COMMENT "1999-2003 / yuji oshimoo / 04@dsg4.com / www.04.jp.org"
STARTPROPERTIES 39
FOUNDRY "FontForge"
FAMILY_NAME "04b03b"
WEIGHT_NAME "Book"
SLANT "R"
SETWIDTH_NAME "Normal"
ADD_STYLE_NAME ""
PIXEL_SIZE 16
POINT_SIZE 150
RESOLUTION_X 75
RESOLUTION_Y 75
SPACING "P"
AVERAGE_WIDTH 88
CHARSET_REGISTRY "ISO10646"
CHARSET_ENCODING "1"
FONTNAME_REGISTRY ""
CHARSET_COLLECTIONS "ISO10646-1"
FONT_NAME "04b03b"
FACE_NAME "04b03b"
COPYRIGHT "1999-2003 / yuji oshimoo / 04@dsg4.com / www.04.jp.org"
FONT_VERSION "Macromedia Fonographer 4.1J 03.3.25"
FONT_ASCENT 12
FONT_DESCENT 4
UNDERLINE_POSITION -2
UNDERLINE_THICKNESS 1
X_HEIGHT 5
CAP_HEIGHT 9
RAW_ASCENT 750
RAW_DESCENT 250
NORM_SPACE 6
RELATIVE_WEIGHT 40
RELATIVE_SETWIDTH 50
SUPERSCRIPT_X 0
SUPERSCRIPT_Y 7
SUPERSCRIPT_SIZE 10
SUBSCRIPT_X 0
SUBSCRIPT_Y 2
SUBSCRIPT_SIZE 10
AVG_LOWERCASE_WIDTH 91
AVG_UPPERCASE_WIDTH 100
ENDPROPERTIES
CHARS 100
STARTCHAR space
ENCODING 32
SWIDTH 375 0
DWIDTH 6 0
BBX 1 1 0 0
BITMAP
00
ENDCHAR
STARTCHAR exclam
ENCODING 33
SWIDTH 250 0
DWIDTH 4 0
BBX 2 10 1 0
BITMAP
C0
C0
C0
C0
C0
C0
00
00
C0
C0
ENDCHAR
STARTCHAR quotedbl
ENCODING 34
SWIDTH 500 0
DWIDTH 8 0
BBX 6 4 1 6
BITMAP
CC
CC
CC
CC
ENDCHAR
STARTCHAR numbersign
ENCODING 35
SWIDTH 750 0
DWIDTH 12 0
BBX 10 10 1 0
BITMAP
3300
3300
FFC0
FFC0
3300
3300
FFC0
FFC0
3300
3300
ENDCHAR
STARTCHAR dollar
ENCODING 36
SWIDTH 625 0
DWIDTH 10 0
BBX 8 10 1 0
BITMAP
3F
3F
CC
CC
FF
FF
33
33
FC
FC
ENDCHAR
STARTCHAR percent
ENCODING 37
SWIDTH 750 0
DWIDTH 12 0
BBX 10 10 1 0
BITMAP
F0C0
F0C0
F300
F300
0C00
0C00
33C0
33C0
C3C0
C3C0
ENDCHAR
STARTCHAR ampersand
ENCODING 38
SWIDTH 750 0
DWIDTH 12 0
BBX 10 10 1 0
BITMAP
FC00
FC00
C000
C000
FFC0
FFC0
C300
C300
FF00
FF00
ENDCHAR
STARTCHAR quotesingle
ENCODING 39
SWIDTH 250 0
DWIDTH 4 0
BBX 2 4 1 6
BITMAP
C0
C0
C0
C0
ENDCHAR
STARTCHAR parenleft
ENCODING 40
SWIDTH 375 0
DWIDTH 6 0
BBX 4 10 1 0
BITMAP
30
30
C0
C0
C0
C0
C0
C0
30
30
ENDCHAR
STARTCHAR parenright
ENCODING 41
SWIDTH 375 0
DWIDTH 6 0
BBX 4 10 1 0
BITMAP
C0
C0
30
30
30
30
30
30
C0
C0
ENDCHAR
STARTCHAR asterisk
ENCODING 42
SWIDTH 500 0
DWIDTH 8 0
BBX 6 6 1 4
BITMAP
CC
CC
30
30
CC
CC
ENDCHAR
STARTCHAR plus
ENCODING 43
SWIDTH 500 0
DWIDTH 8 0
BBX 6 6 1 2
BITMAP
30
30
FC
FC
30
30
ENDCHAR
STARTCHAR comma
ENCODING 44
SWIDTH 375 0
DWIDTH 6 0
BBX 4 4 1 -2
BITMAP
30
30
C0
C0
ENDCHAR
STARTCHAR hyphen
ENCODING 45
SWIDTH 500 0
DWIDTH 8 0
BBX 6 2 1 4
BITMAP
FC
FC
ENDCHAR
STARTCHAR period
ENCODING 46
SWIDTH 250 0
DWIDTH 4 0
BBX 2 2 1 0
BITMAP
C0
C0
ENDCHAR
STARTCHAR slash
ENCODING 47
SWIDTH 750 0
DWIDTH 12 0
BBX 10 10 1 0
BITMAP
00C0
00C0
0300
0300
0C00
0C00
3000
3000
C000
C000
ENDCHAR
STARTCHAR zero
ENCODING 48
SWIDTH 625 0
DWIDTH 10 0
BBX 8 10 1 0
BITMAP
FF
FF
C3
C3
C3
C3
C3
C3
FF
FF
ENDCHAR
STARTCHAR one
ENCODING 49
SWIDTH 375 0
DWIDTH 6 0
BBX 4 10 1 0
BITMAP
F0
F0
30
30
30
30
30
30
30
30
ENDCHAR
STARTCHAR two
ENCODING 50
SWIDTH 625 0
DWIDTH 10 0
BBX 8 10 1 0
BITMAP
FF
FF
03
03
FF
FF
C0
C0
FF
FF
ENDCHAR
STARTCHAR three
ENCODING 51
SWIDTH 625 0
DWIDTH 10 0
BBX 8 10 1 0
BITMAP
FF
FF
03
03
FF
FF
03
03
FF
FF
ENDCHAR
STARTCHAR four
ENCODING 52
SWIDTH 625 0
DWIDTH 10 0
BBX 8 10 1 0
BITMAP
C3
C3
C3
C3
C3
C3
FF
FF
03
03
ENDCHAR
STARTCHAR five
ENCODING 53
SWIDTH 625 0
DWIDTH 10 0
BBX 8 10 1 0
BITMAP
FF
FF
C0
C0
FF
FF
03
03
FF
FF
ENDCHAR
STARTCHAR six
ENCODING 54
SWIDTH 625 0
DWIDTH 10 0
BBX 8 10 1 0
BITMAP
FC
FC
C0
C0
FF
FF
C3
C3
FF
FF
ENDCHAR
STARTCHAR seven
ENCODING 55
SWIDTH 625 0
DWIDTH 10 0
BBX 8 10 1 0
BITMAP
FF
FF
03
03
0C
0C
30
30
30
30
ENDCHAR
STARTCHAR eight
ENCODING 56
SWIDTH 625 0
DWIDTH 10 0
BBX 8 10 1 0
BITMAP
FF
FF
C3
C3
FF
FF
C3
C3
FF
FF
ENDCHAR
STARTCHAR nine
ENCODING 57
SWIDTH 625 0
DWIDTH 10 0
BBX 8 10 1 0
BITMAP
FF
FF
C3
C3
FF
FF
03
03
3F
3F
ENDCHAR
STARTCHAR colon
ENCODING 58
SWIDTH 250 0
DWIDTH 4 0
BBX 2 6 1 2
BITMAP
C0
C0
00
00
C0
C0
ENDCHAR
STARTCHAR semicolon
ENCODING 59
SWIDTH 250 0
DWIDTH 4 0
BBX 2 8 1 0
BITMAP
C0
C0
00
00
C0
C0
C0
C0
ENDCHAR
STARTCHAR less
ENCODING 60
SWIDTH 500 0
DWIDTH 8 0
BBX 6 10 1 0
BITMAP
0C
0C
30
30
C0
C0
30
30
0C
0C
ENDCHAR
STARTCHAR equal
ENCODING 61
SWIDTH 500 0
DWIDTH 8 0
BBX 6 6 1 2
BITMAP
FC
FC
00
00
FC
FC
ENDCHAR
STARTCHAR greater
ENCODING 62
SWIDTH 500 0
DWIDTH 8 0
BBX 6 10 1 0
BITMAP
C0
C0
30
30
0C
0C
30
30
C0
C0
ENDCHAR
STARTCHAR question
ENCODING 63
SWIDTH 625 0
DWIDTH 10 0
BBX 8 10 1 0
BITMAP
FF
FF
03
03
3F
3F
00
00
30
30
ENDCHAR
STARTCHAR at
ENCODING 64
SWIDTH 750 0
DWIDTH 12 0
BBX 10 10 1 0
BITMAP
FFC0
FFC0
C0C0
C0C0
CFC0
CFC0
CCC0
CCC0
FF00
FF00
ENDCHAR
STARTCHAR A
ENCODING 65
SWIDTH 625 0
DWIDTH 10 0
BBX 8 10 1 0
BITMAP
FF
FF
C3
C3
FF
FF
C3
C3
C3
C3
ENDCHAR
STARTCHAR B
ENCODING 66
SWIDTH 625 0
DWIDTH 10 0
BBX 8 10 1 0
BITMAP
FC
FC
CC
CC
FF
FF
C3
C3
FF
FF
ENDCHAR
STARTCHAR C
ENCODING 67
SWIDTH 625 0
DWIDTH 10 0
BBX 8 10 1 0
BITMAP
FF
FF
C0
C0
C0
C0
C0
C0
FF
FF
ENDCHAR
STARTCHAR D
ENCODING 68
SWIDTH 625 0
DWIDTH 10 0
BBX 8 10 1 0
BITMAP
FC
FC
C3
C3
C3
C3
C3
C3
FC
FC
ENDCHAR
STARTCHAR E
ENCODING 69
SWIDTH 625 0
DWIDTH 10 0
BBX 8 10 1 0
BITMAP
FF
FF
C0
C0
FF
FF
C0
C0
FF
FF
ENDCHAR
STARTCHAR F
ENCODING 70
SWIDTH 625 0
DWIDTH 10 0
BBX 8 10 1 0
BITMAP
FF
FF
C0
C0
FF
FF
C0
C0
C0
C0
ENDCHAR
STARTCHAR G
ENCODING 71
SWIDTH 625 0
DWIDTH 10 0
BBX 8 10 1 0
BITMAP
FF
FF
C0
C0
CF
CF
C3
C3
FF
FF
ENDCHAR
STARTCHAR H
ENCODING 72
SWIDTH 625 0
DWIDTH 10 0
BBX 8 10 1 0
BITMAP
C3
C3
C3
C3
FF
FF
C3
C3
C3
C3
ENDCHAR
STARTCHAR I
ENCODING 73
SWIDTH 500 0
DWIDTH 8 0
BBX 6 10 1 0
BITMAP
FC
FC
30
30
30
30
30
30
FC
FC
ENDCHAR
STARTCHAR J
ENCODING 74
SWIDTH 625 0
DWIDTH 10 0
BBX 8 10 1 0
BITMAP
0F
0F
03
03
03
03
C3
C3
FF
FF
ENDCHAR
STARTCHAR K
ENCODING 75
SWIDTH 625 0
DWIDTH 10 0
BBX 8 10 1 0
BITMAP
C3
C3
C3
C3
FC
FC
C3
C3
C3
C3
ENDCHAR
STARTCHAR L
ENCODING 76
SWIDTH 625 0
DWIDTH 10 0
BBX 8 10 1 0
BITMAP
C0
C0
C0
C0
C0
C0
C0
C0
FF
FF
ENDCHAR
STARTCHAR M
ENCODING 77
SWIDTH 750 0
DWIDTH 12 0
BBX 10 10 1 0
BITMAP
FFC0
FFC0
CCC0
CCC0
CCC0
CCC0
CCC0
CCC0
CCC0
CCC0
ENDCHAR
STARTCHAR N
ENCODING 78
SWIDTH 625 0
DWIDTH 10 0
BBX 8 10 1 0
BITMAP
C3
C3
F3
F3
CF
CF
C3
C3
C3
C3
ENDCHAR
STARTCHAR O
ENCODING 79
SWIDTH 625 0
DWIDTH 10 0
BBX 8 10 1 0
BITMAP
FF
FF
C3
C3
C3
C3
C3
C3
FF
FF
ENDCHAR
STARTCHAR P
ENCODING 80
SWIDTH 625 0
DWIDTH 10 0
BBX 8 10 1 0
BITMAP
FF
FF
C3
C3
C3
C3
FF
FF
C0
C0
ENDCHAR
STARTCHAR Q
ENCODING 81
SWIDTH 625 0
DWIDTH 10 0
BBX 8 10 1 0
BITMAP
FF
FF
C3
C3
C3
C3
CF
CF
FF
FF
ENDCHAR
STARTCHAR R
ENCODING 82
SWIDTH 625 0
DWIDTH 10 0
BBX 8 10 1 0
BITMAP
FF
FF
C3
C3
FF
FF
CC
CC
CF
CF
ENDCHAR
STARTCHAR S
ENCODING 83
SWIDTH 625 0
DWIDTH 10 0
BBX 8 10 1 0
BITMAP
FF
FF
C0
C0
FF
FF
03
03
FF
FF
ENDCHAR
STARTCHAR T
ENCODING 84
SWIDTH 500 0
DWIDTH 8 0
BBX 6 10 1 0
BITMAP
FC
FC
30
30
30
30
30
30
30
30
ENDCHAR
STARTCHAR U
ENCODING 85
SWIDTH 625 0
DWIDTH 10 0
BBX 8 10 1 0
BITMAP
C3
C3
C3
C3
C3
C3
C3
C3
FF
FF
ENDCHAR
STARTCHAR V
ENCODING 86
SWIDTH 625 0
DWIDTH 10 0
BBX 8 10 1 0
BITMAP
C3
C3
C3
C3
CC
CC
CC
CC
30
30
ENDCHAR
STARTCHAR W
ENCODING 87
SWIDTH 750 0
DWIDTH 12 0
BBX 10 10 1 0
BITMAP
CCC0
CCC0
CCC0
CCC0
CCC0
CCC0
CCC0
CCC0
FFC0
FFC0
ENDCHAR
STARTCHAR X
ENCODING 88
SWIDTH 625 0
DWIDTH 10 0
BBX 8 10 1 0
BITMAP
C3
C3
C3
C3
3C
3C
C3
C3
C3
C3
ENDCHAR
STARTCHAR Y
ENCODING 89
SWIDTH 625 0
DWIDTH 10 0
BBX 8 10 1 0
BITMAP
C3
C3
C3
C3
FF
FF
03
03
FF
FF
ENDCHAR
STARTCHAR Z
ENCODING 90
SWIDTH 625 0
DWIDTH 10 0
BBX 8 10 1 0
BITMAP
FF
FF
03
03
3C
3C
C0
C0
FF
FF
ENDCHAR
STARTCHAR bracketleft
ENCODING 91
SWIDTH 375 0
DWIDTH 6 0
BBX 4 10 1 0
BITMAP
F0
F0
C0
C0
C0
C0
C0
C0
F0
F0
ENDCHAR
STARTCHAR backslash
ENCODING 92
SWIDTH 750 0
DWIDTH 12 0
BBX 10 10 1 0
BITMAP
C000
C000
3000
3000
0C00
0C00
0300
0300
00C0
00C0
ENDCHAR
STARTCHAR bracketright
ENCODING 93
SWIDTH 375 0
DWIDTH 6 0
BBX 4 10 1 0
BITMAP
F0
F0
30
30
30
30
30
30
F0
F0
ENDCHAR
STARTCHAR asciicircum
ENCODING 94
SWIDTH 500 0
DWIDTH 8 0
BBX 6 4 1 6
BITMAP
30
30
CC
CC
ENDCHAR
STARTCHAR underscore
ENCODING 95
SWIDTH 625 0
DWIDTH 10 0
BBX 8 2 1 0
BITMAP
FF
FF
ENDCHAR
STARTCHAR grave
ENCODING 96
SWIDTH 375 0
DWIDTH 6 0
BBX 4 4 1 6
BITMAP
C0
C0
30
30
ENDCHAR
STARTCHAR a
ENCODING 97
SWIDTH 625 0
DWIDTH 10 0
BBX 8 6 1 0
BITMAP
3F
3F
C3
C3
FF
FF
ENDCHAR
STARTCHAR b
ENCODING 98
SWIDTH 625 0
DWIDTH 10 0
BBX 8 8 1 0
BITMAP
C0
C0
FF
FF
C3
C3
FF
FF
ENDCHAR
STARTCHAR c
ENCODING 99
SWIDTH 500 0
DWIDTH 8 0
BBX 6 6 1 0
BITMAP
FC
FC
C0
C0
FC
FC
ENDCHAR
STARTCHAR d
ENCODING 100
SWIDTH 625 0
DWIDTH 10 0
BBX 8 8 1 0
BITMAP
03
03
FF
FF
C3
C3
FF
FF
ENDCHAR
STARTCHAR e
ENCODING 101
SWIDTH 625 0
DWIDTH 10 0
BBX 8 6 1 0
BITMAP
FF
FF
CC
CC
3F
3F
ENDCHAR
STARTCHAR f
ENCODING 102
SWIDTH 625 0
DWIDTH 10 0
BBX 8 8 1 0
BITMAP
3F
3F
30
30
FF
FF
30
30
ENDCHAR
STARTCHAR g
ENCODING 103
SWIDTH 625 0
DWIDTH 10 0
BBX 8 8 1 -2
BITMAP
FF
FF
C3
C3
FF
FF
0C
0C
ENDCHAR
STARTCHAR h
ENCODING 104
SWIDTH 625 0
DWIDTH 10 0
BBX 8 8 1 0
BITMAP
C0
C0
FF
FF
C3
C3
C3
C3
ENDCHAR
STARTCHAR i
ENCODING 105
SWIDTH 250 0
DWIDTH 4 0
BBX 2 8 1 0
BITMAP
C0
C0
00
00
C0
C0
C0
C0
ENDCHAR
STARTCHAR j
ENCODING 106
SWIDTH 250 0
DWIDTH 4 0
BBX 2 10 1 -2
BITMAP
C0
C0
00
00
C0
C0
C0
C0
C0
C0
ENDCHAR
STARTCHAR k
ENCODING 107
SWIDTH 625 0
DWIDTH 10 0
BBX 8 8 1 0
BITMAP
C0
C0
C3
C3
FC
FC
C3
C3
ENDCHAR
STARTCHAR l
ENCODING 108
SWIDTH 250 0
DWIDTH 4 0
BBX 2 8 1 0
BITMAP
C0
C0
C0
C0
C0
C0
C0
C0
ENDCHAR
STARTCHAR m
ENCODING 109
SWIDTH 750 0
DWIDTH 12 0
BBX 10 6 1 0
BITMAP
FFC0
FFC0
CCC0
CCC0
CCC0
CCC0
ENDCHAR
STARTCHAR n
ENCODING 110
SWIDTH 625 0
DWIDTH 10 0
BBX 8 6 1 0
BITMAP
FF
FF
C3
C3
C3
C3
ENDCHAR
STARTCHAR o
ENCODING 111
SWIDTH 625 0
DWIDTH 10 0
BBX 8 6 1 0
BITMAP
FF
FF
C3
C3
FF
FF
ENDCHAR
STARTCHAR p
ENCODING 112
SWIDTH 625 0
DWIDTH 10 0
BBX 8 8 1 -2
BITMAP
FF
FF
C3
C3
FF
FF
C0
C0
ENDCHAR
STARTCHAR q
ENCODING 113
SWIDTH 625 0
DWIDTH 10 0
BBX 8 8 1 -2
BITMAP
FF
FF
C3
C3
FF
FF
03
03
ENDCHAR
STARTCHAR r
ENCODING 114
SWIDTH 500 0
DWIDTH 8 0
BBX 6 6 1 0
BITMAP
FC
FC
C0
C0
C0
C0
ENDCHAR
STARTCHAR s
ENCODING 115
SWIDTH 625 0
DWIDTH 10 0
BBX 8 6 1 0
BITMAP
FF
FF
30
30
FF
FF
ENDCHAR
STARTCHAR t
ENCODING 116
SWIDTH 500 0
DWIDTH 8 0
BBX 6 8 1 0
BITMAP
30
30
FC
FC
30
30
3C
3C
ENDCHAR
STARTCHAR u
ENCODING 117
SWIDTH 625 0
DWIDTH 10 0
BBX 8 6 1 0
BITMAP
C3
C3
C3
C3
FF
FF
ENDCHAR
STARTCHAR v
ENCODING 118
SWIDTH 625 0
DWIDTH 10 0
BBX 8 6 1 0
BITMAP
C3
C3
C3
C3
3C
3C
ENDCHAR
STARTCHAR w
ENCODING 119
SWIDTH 750 0
DWIDTH 12 0
BBX 10 6 1 0
BITMAP
CCC0
CCC0
CCC0
CCC0
FFC0
FFC0
ENDCHAR
STARTCHAR x
ENCODING 120
SWIDTH 500 0
DWIDTH 8 0
BBX 6 6 1 0
BITMAP
CC
CC
30
30
CC
CC
ENDCHAR
STARTCHAR y
ENCODING 121
SWIDTH 625 0
DWIDTH 10 0
BBX 8 8 1 -2
BITMAP
C3
C3
C3
C3
FF
FF
03
03
ENDCHAR
STARTCHAR z
ENCODING 122
SWIDTH 625 0
DWIDTH 10 0
BBX 8 6 1 0
BITMAP
FF
FF
0C
0C
FF
FF
ENDCHAR
STARTCHAR braceleft
ENCODING 123
SWIDTH 500 0
DWIDTH 8 0
BBX 6 10 1 0
BITMAP
3C
3C
30
30
C0
C0
30
30
3C
3C
ENDCHAR
STARTCHAR bar
ENCODING 124
SWIDTH 250 0
DWIDTH 4 0
BBX 2 10 1 0
BITMAP
C0
C0
C0
C0
C0
C0
C0
C0
C0
C0
ENDCHAR
STARTCHAR braceright
ENCODING 125
SWIDTH 500 0
DWIDTH 8 0
BBX 6 10 1 0
BITMAP
F0
F0
30
30
0C
0C
30
30
F0
F0
ENDCHAR
STARTCHAR asciitilde
ENCODING 126
SWIDTH 625 0
DWIDTH 10 0
BBX 8 4 1 6
BITMAP
33
33
CC
CC
ENDCHAR
STARTCHAR nonbreakingspace
ENCODING 160
SWIDTH 500 0
DWIDTH 8 0
BBX 1 1 0 0
BITMAP
00
ENDCHAR
STARTCHAR hyphen.dup1
ENCODING 8208
SWIDTH 500 0
DWIDTH 8 0
BBX 6 2 1 4
BITMAP
FC
FC
ENDCHAR
STARTCHAR .notdef
ENCODING -1
SWIDTH 500 0
DWIDTH 8 0
BBX 6 12 1 0
BITMAP
FC
FC
CC
CC
CC
CC
CC
CC
CC
CC
FC
FC
ENDCHAR
STARTCHAR .null
ENCODING -1
SWIDTH 0 0
DWIDTH 0 0
BBX 1 1 0 0
BITMAP
00
ENDCHAR
STARTCHAR nonmarkingreturn
ENCODING -1
SWIDTH 375 0
DWIDTH 6 0
BBX 1 1 0 0
BITMAP
00
ENDCHAR
ENDFONT
